<svg width="162" height="237" viewBox="0 0 162 237" fill="none" xmlns="http://www.w3.org/2000/svg">
<g clip-path="url(#clip0_1117_3245)">
<path d="M155.336 21.0435L132.915 53.7099L134.862 56.608L135.472 54.4793L137.681 54.074L181.264 84.299L182.403 90.5067L206.551 55.323L200.241 56.4813L156.997 26.4916L156.496 23.764L158.877 22.9602L155.336 21.0435Z" fill="#0B0B0B"/>
<path d="M135.608 57.439C138.916 61.787 142.621 64.9175 145.308 67.4965C146.775 68.9071 147.037 71.2176 146.858 73.2524C146.631 76.0193 145.147 77.9814 142.74 79.3496C141.09 80.3141 139.194 80.7705 137.286 80.6626C136.279 80.6114 135.293 80.3562 134.386 79.9121C133.479 79.4679 132.671 78.8442 132.009 78.0785C130.139 75.9443 128.693 72.7411 130.038 70.2396C132.214 66.1206 134.076 61.8416 135.608 57.439Z" fill="#0B0B0B"/>
<path d="M112.342 53.272L114.124 62.9792L143.914 19.5603L136.859 18.3825L112.342 53.272Z" fill="#0B0B0B"/>
<path d="M158.266 174.64L151.956 175.798L155.748 196.459L162.058 195.301L158.266 174.64Z" fill="#0B0B0B"/>
<path d="M146.139 184.27L147.303 190.612L167.862 186.838L166.698 180.496L146.139 184.27Z" fill="#0B0B0B"/>
<path d="M153.418 227.92L143.357 229.766L148.265 256.505L158.325 254.658L153.418 227.92Z" fill="#0B0B0B"/>
<path d="M125.632 24.6063C127.653 24.2354 128.989 22.2887 128.616 20.2581C128.243 18.2275 126.303 16.882 124.283 17.2528C122.262 17.6237 120.926 19.5704 121.299 21.601C121.672 23.6317 123.611 24.9772 125.632 24.6063Z" fill="#0B0B0B"/>
<path d="M89.0561 68.8875C91.1951 68.4949 92.609 66.4339 92.2144 64.2842C91.8199 62.1345 89.7663 60.71 87.6273 61.1026C85.4876 61.4953 84.0737 63.5562 84.4683 65.7059C84.8628 67.8556 86.9164 69.2802 89.0561 68.8875Z" fill="#0B0B0B"/>
<path d="M49.8042 118.876C51.8749 118.496 53.2439 116.501 52.862 114.42C52.4801 112.339 50.4918 110.96 48.4211 111.34C46.3504 111.72 44.9815 113.715 45.3634 115.796C45.7454 117.877 47.7336 119.256 49.8042 118.876Z" fill="#0B0B0B"/>
<path d="M138.913 175.999C140.949 175.625 142.295 173.664 141.919 171.617C141.544 169.571 139.589 168.215 137.553 168.588C135.516 168.962 134.17 170.924 134.545 172.97C134.921 175.017 136.876 176.373 138.913 175.999Z" fill="#0B0B0B"/>
<path d="M72.5355 221.08C74.7168 220.68 76.1589 218.578 75.7567 216.386C75.3543 214.194 73.2598 212.741 71.0785 213.142C68.8972 213.542 67.4551 215.644 67.8574 217.836C68.2597 220.028 70.3542 221.48 72.5355 221.08Z" fill="#0B0B0B"/>
<path d="M60.9432 39.3985L73.8193 48.328L76.0716 45.0456L64.1166 36.7547L60.9124 39.2307" fill="#0B0B0B"/>
<path d="M84.2715 193.219L86.5985 205.898L99.1726 203.59L84.2715 193.219Z" fill="#0B0B0B"/>
<path d="M113.577 197.987L111.581 200.897L138.024 219.236L140.021 216.325L113.577 197.987Z" fill="#0B0B0B"/>
<path d="M76.6818 225.135L134.532 265.258C142.449 251.363 142.811 238.963 136.018 227.901C130.612 219.107 121.623 213.166 111.533 211.167C98.5513 208.595 86.8156 212.622 76.6818 225.135Z" fill="#0B0B0B"/>
<path d="M122.886 196.118L131.44 183.652L134.316 185.646L134.704 187.76L164.825 208.653L205.967 201.102L165.787 259.648L158.248 218.571L127.925 197.542L125.158 198.05L122.886 196.118Z" fill="#0B0B0B"/>
<path d="M167.951 145.725L146.826 131.075L132.279 152.272L153.405 166.923L167.951 145.725Z" fill="#0B0B0B"/>
<path d="M130.492 119.516L127.799 123.439L129.495 124.615L114.186 146.923L114.214 146.943C108.911 144.523 102.9 144.189 97.3702 146.007C91.8406 147.826 87.1952 151.664 84.3534 156.763C81.5114 161.862 80.6795 167.849 82.0226 173.543C83.3655 179.235 86.7854 184.218 91.6057 187.505C96.4264 190.792 102.295 192.144 108.054 191.294C113.812 190.444 119.038 187.453 122.7 182.913C126.362 178.373 128.192 172.616 127.828 166.778C127.464 160.941 124.933 155.449 120.735 151.39L120.78 151.417L136.298 128.802L137.773 129.825L140.22 126.259L130.492 119.516Z" fill="#0B0B0B"/>
<path d="M57.9855 211.146L79.823 207.138L72.6658 168.141L74.366 165.664L71.5458 163.704L43.9795 168.764L50.8214 173.508L57.7375 211.191L57.9855 211.146Z" fill="#0B0B0B"/>
<path d="M26.167 169.597C32.0372 183.42 39.2234 194.097 47.4167 202.39C47.9609 195.388 46.8832 188.871 43.8483 182.947C39.7772 176.474 33.4856 171.725 26.167 169.597Z" fill="#0B0B0B"/>
<path d="M96.9986 112.854L105.135 109.473L106.465 116.721L111.12 110.783L117.028 117.26L110.832 120.765L117.841 124.672L113.36 130.995L107.575 125.937L107.318 133.858L99.0031 132.183L101.92 124.948L94.5384 126.853L93.4411 118.08L101.112 119.255L96.9986 112.854Z" fill="#0B0B0B"/>
<path d="M83.0859 122.416L83.0281 122.368C82.6268 122.01 82.206 121.676 81.7731 121.359C75.6692 116.419 70.3691 111.506 67.5318 106.685C65.9879 112.956 63.4965 118.952 60.1441 124.462C59.4546 125.352 58.8608 126.313 58.3726 127.329C57.1126 129.98 56.6128 132.932 56.9289 135.855C57.2451 138.777 58.3649 141.556 60.1628 143.878C61.9607 146.2 64.3657 147.975 67.1085 149.003C69.8514 150.032 72.8237 150.273 75.6926 149.7C78.5615 149.128 81.2137 147.764 83.3522 145.762C85.4904 143.759 87.0311 141.197 87.8007 138.363C88.5704 135.528 88.5388 132.533 87.7098 129.712C86.8803 126.892 85.2865 124.357 83.1067 122.393L83.0859 122.416Z" fill="#0B0B0B"/>
<path d="M104.826 99.934L104.795 99.9L104.789 99.8661L100.542 95.5322L98.1327 101.024C97.8137 101.705 97.6868 102.461 97.765 103.211C97.8424 103.96 98.1228 104.674 98.5749 105.276C99.027 105.878 99.6341 106.345 100.331 106.626C101.027 106.907 101.786 106.992 102.526 106.871C103.266 106.751 103.959 106.43 104.53 105.942C105.101 105.455 105.529 104.82 105.766 104.105C106.004 103.391 106.043 102.625 105.878 101.89C105.714 101.154 105.354 100.477 104.835 99.9322L104.826 99.934Z" fill="#0B0B0B"/>
<path d="M48.4537 103.172L57.2338 109.261L65.9449 96.5722L78.4086 105.216L83.7841 97.3761L62.9077 82.8985L48.4537 103.172Z" fill="#0B0B0B"/>
<path d="M55.8076 66.4854L69.0016 64.0638L79.5556 71.3829L80.0685 74.1776L98.8824 87.225L100.258 94.7175L82.0757 82.1041L80.4532 84.4682L55.8076 66.4854Z" fill="#0B0B0B"/>
<path d="M17.0318 131.884L23.3898 163.168L53.0596 157.722L47.2979 126.329L34.7317 117.61L36.7139 128.411L17.0318 131.884Z" fill="#0B0B0B"/>
<path d="M19.1299 104.548C17.5138 111.029 16.8832 118.151 17.0008 125.75C21.2243 123.697 24.4934 120.634 25.7902 115.476C25.298 109.893 22.7002 106.673 19.1299 104.548Z" fill="#0B0B0B"/>
<path d="M107.653 90.751L122.415 69.2764L125.312 85.0621L155.934 106.299L158.237 102.942L149.142 96.6391C144.13 90.8293 150.661 84.7654 155.946 86.7284L164.36 92.5624L166.654 92.1413L168.271 93.2665L168.545 94.7623L176.025 99.9504L168.968 110.234L161.182 104.83L158.9 108.113L166.115 113.116L164.1 116.053L144.825 102.674L142.009 106.778L161.868 120.551L156.694 128.09L137.308 114.643L134.924 115.08L132.573 113.45L132.272 111.811L128.278 109.04C124.642 104.545 129.184 98.964 133.826 100.961L138.419 104.142L140.823 100.638L123.236 88.4212L107.653 90.751Z" fill="#0B0B0B"/>
<path d="M75.6615 36.7299L93.7409 49.2681L68.1735 53.9606C63.8562 48.0884 58.7193 45.4337 52.3553 47.5382C45.2651 49.662 41.3133 53.9749 40.5838 61.7942C39.8807 61.9031 39.1869 62.0652 38.5082 62.2792C35.5106 63.2519 32.914 65.1841 31.1149 67.7807C29.3158 70.3772 28.413 73.4954 28.5444 76.6592C28.6147 78.1493 28.8592 79.6262 29.2731 81.0594C23.968 84.1241 21.5131 89.0442 22.3627 96.1178C22.5944 98.3239 23.3099 100.452 24.4579 102.348C27.7406 107.607 33.3466 109.245 40.0981 109.091C40.8027 109.573 41.6456 109.81 42.4965 109.764C43.3473 109.718 44.1588 109.391 44.8058 108.835C45.4527 108.279 45.8991 107.524 46.0761 106.687C46.253 105.85 46.1505 104.977 45.7846 104.203C45.4186 103.43 44.8095 102.798 44.0512 102.405C43.293 102.014 42.4278 101.883 41.5892 102.034C40.7507 102.185 39.9854 102.609 39.4115 103.241C38.8376 103.873 38.4871 104.677 38.414 105.53C34.7981 105.574 31.7634 104.595 29.375 102.462C27.1313 100.422 25.7681 97.5834 25.5762 94.5519C25.3246 90.8173 26.8463 87.2874 30.7063 84.0321C33.4819 88.9733 36.8132 90.7898 40.5624 90.2355C41.4006 90.13 42.203 89.8318 42.9073 89.3642C43.6493 88.8637 44.2078 88.133 44.4977 87.2835C44.8076 86.253 44.749 85.1455 44.3323 84.1524C42.9528 80.5852 38.9855 78.93 31.8823 79.6935C31.4754 76.1064 31.6628 72.8561 33.342 70.5065C35.7444 67.3154 37.9491 65.7612 41.2417 65.4591C43.5367 71.435 46.3286 73.7519 49.3396 74.4679C50.1727 74.6756 51.0486 74.6246 51.8513 74.3215C52.6541 74.0185 53.346 73.4777 53.8356 72.7706L53.8706 72.7195C54.4427 71.7762 54.7013 70.6742 54.609 69.5724C54.5167 68.4707 54.0783 67.4263 53.3571 66.5902C51.4896 64.2869 48.3896 62.8441 44.274 62.0733C44.0494 59.5696 44.7239 57.0694 46.1754 55.0249C47.0672 53.83 48.185 52.8238 49.4648 52.0639C50.7447 51.304 52.1615 50.8052 53.6343 50.5961C55.1071 50.387 56.607 50.4717 58.0483 50.8453C59.4895 51.2189 60.8438 51.8741 62.0337 52.7734C63.8339 54.2111 65.4307 55.8885 66.78 57.7592L97.4852 52.1238L102.53 79.6106L107.713 72.0641L103.842 50.972L119.036 28.7692C121.202 14.7253 70.6377 20.641 75.6615 36.7299Z" fill="#0B0B0B"/>
</g>
<defs>
<clipPath id="clip0_1117_3245">
<rect width="216.516" height="263.33" fill="white" transform="translate(0 39.0854) rotate(-10.4)"/>
</clipPath>
</defs>
</svg>
